<svg width="10" height="10" viewBox="0 0 10 10" fill="none" xmlns="http://www.w3.org/2000/svg">
<path d="M8.88889 4.98615C8.88889 3.90582 8.51167 2.98947 7.75722 2.23712C7.00278 1.48476 6.0837 1.1084 5 1.10803V0C5.69444 0 6.345 0.131671 6.95167 0.395014C7.55833 0.658356 8.08611 1.01385 8.535 1.4615C8.98389 1.90914 9.34037 2.43546 9.60444 3.04044C9.86852 3.64543 10.0004 4.294 10 4.98615H8.88889ZM6.66667 4.98615C6.66667 4.52447 6.50463 4.13204 6.18056 3.80886C5.85648 3.48569 5.46296 3.3241 5 3.3241V2.21607C5.76852 2.21607 6.4237 2.48624 6.96556 3.02659C7.50741 3.56694 7.77815 4.22013 7.77778 4.98615H6.66667ZM9.41667 10C8.25926 10 7.11574 9.74848 5.98611 9.24543C4.85648 8.74238 3.8287 8.02899 2.90278 7.10526C1.97685 6.18153 1.26167 5.1566 0.757222 4.03047C0.252778 2.90434 0.00037037 1.76399 0 0.609418C0 0.443213 0.0555555 0.304709 0.166667 0.193906C0.277778 0.0831024 0.416667 0.0277008 0.583333 0.0277008H2.83333C2.96296 0.0277008 3.0787 0.0716527 3.18056 0.159557C3.28241 0.247461 3.34259 0.351247 3.36111 0.470914L3.72222 2.40997C3.74074 2.55771 3.73611 2.68236 3.70833 2.78393C3.68056 2.8855 3.62963 2.97322 3.55556 3.04709L2.20833 4.40443C2.39352 4.74608 2.61333 5.07609 2.86778 5.39446C3.12222 5.71284 3.40241 6.01995 3.70833 6.31579C3.99537 6.60203 4.2963 6.86759 4.61111 7.11247C4.92593 7.35734 5.25926 7.58116 5.61111 7.78393L6.91667 6.48199C7 6.39889 7.10889 6.33666 7.24333 6.29529C7.37778 6.25392 7.50963 6.24229 7.63889 6.26039L9.55556 6.6482C9.68519 6.68513 9.79167 6.75217 9.875 6.84931C9.95833 6.94645 10 7.05485 10 7.17452V9.41828C10 9.58449 9.94444 9.72299 9.83333 9.8338C9.72222 9.9446 9.58333 10 9.41667 10Z" fill="#008080"/>
</svg>
