<svg width="8" height="10" viewBox="0 0 8 10" fill="none" xmlns="http://www.w3.org/2000/svg">
<path d="M4 5C4.275 5 4.5105 4.90217 4.7065 4.7065C4.9025 4.51083 5.00033 4.27533 5 4C4.99967 3.72467 4.90183 3.48933 4.7065 3.294C4.51117 3.09867 4.27567 3.00067 4 3C3.72433 2.99933 3.489 3.09733 3.294 3.294C3.099 3.49067 3.001 3.726 3 4C2.999 4.274 3.097 4.5095 3.294 4.7065C3.491 4.9035 3.72633 5.00133 4 5ZM4 10C2.65833 8.85833 1.65633 7.798 0.994 6.819C0.331667 5.84 0.000333333 4.93367 0 4.1C0 2.85 0.402167 1.85417 1.2065 1.1125C2.01083 0.370833 2.942 0 4 0C5.058 0 5.98933 0.370833 6.794 1.1125C7.59867 1.85417 8.00067 2.85 8 4.1C8 4.93333 7.66883 5.83967 7.0065 6.819C6.34417 7.79833 5.342 8.85867 4 10Z" fill="#008080"/>
</svg>
