<?xml version="1.0" encoding="UTF-8"?><svg id="Layer_2" xmlns="http://www.w3.org/2000/svg" xmlns:xlink="http://www.w3.org/1999/xlink" viewBox="0 0 322.68 107.47"><defs><style>.cls-1{mask:url(#mask-5);}.cls-2{fill:url(#linear-gradient-2);}.cls-3{mask:url(#mask-1);}.cls-4{mask:url(#mask);}.cls-5{fill:url(#linear-gradient-4);}.cls-6{mask:url(#mask-2);}.cls-7{fill:url(#linear-gradient-3);}.cls-8{clip-path:url(#clippath-1);}.cls-9{fill:url(#linear-gradient-5);}.cls-10{fill:#231f20;}.cls-11{fill:#fff100;}.cls-11,.cls-12,.cls-13,.cls-14{fill-rule:evenodd;}.cls-12{fill:#00a551;}.cls-15{clip-rule:evenodd;fill:none;}.cls-16{fill:url(#linear-gradient-6);}.cls-13{fill:#54a175;}.cls-14{fill:#ffdc00;}.cls-17{mask:url(#mask-4);}.cls-18{fill:url(#linear-gradient);}.cls-19{clip-path:url(#clippath);}.cls-20{mask:url(#mask-3);}</style><clipPath id="clippath"><path class="cls-15" d="M82.77,86.82c-1.61-12.62-13.14-13.76-27.12-12.81,13.03-3.55,24.52-5.75,29.52,3.35-3.04-12.35-14.63-12.17-28.41-9.62,12.54-5.02,23.7-8.51,29.71-.05-4.43-11.92-15.92-10.42-29.32-6.31,11.88-6.42,22.57-11.16,29.51-3.45-5.73-11.27-16.87-8.57-29.62-3.02,10.99-7.65,20.99-13.44,28.7-6.61C66.43,19.07,23.47,102.61,1.68,61.34c-.07-.07-.14-.13-.22-.2h0s0,.01,0,.01h0s0,0,0,0h0s0,0,0,0h0c8.88,46.33,71.1.76,81.31,25.68"/></clipPath><linearGradient id="linear-gradient" x1="24.7" y1="27.77" x2="63.62" y2="99.12" gradientUnits="userSpaceOnUse"><stop offset="0" stop-color="#891429"/><stop offset="1" stop-color="#ec0b70"/></linearGradient><linearGradient id="linear-gradient-2" x1="-457.77" y1="609.59" x2="-456.86" y2="571.44" gradientTransform="translate(500.98 -509.46)" gradientUnits="userSpaceOnUse"><stop offset="0" stop-color="#fff"/><stop offset="1" stop-color="#000"/></linearGradient><mask id="mask" x="1.46" y="41.95" width="85.2" height="44.88" maskUnits="userSpaceOnUse"><rect class="cls-2" x="1.46" y="41.95" width="85.2" height="44.88"/></mask><mask id="mask-1" x="1.46" y="41.95" width="85.2" height="44.88" maskUnits="userSpaceOnUse"><rect class="cls-2" x="1.46" y="41.95" width="85.2" height="44.88"/></mask><mask id="mask-2" x="1.46" y="41.95" width="85.2" height="44.88" maskUnits="userSpaceOnUse"><rect class="cls-2" x="1.46" y="41.95" width="85.2" height="44.88"/></mask><clipPath id="clippath-1"><path class="cls-15" d="M3.9,20.65c1.61,12.62,13.14,13.76,27.12,12.81-13.03,3.55-24.52,5.75-29.52-3.35,3.04,12.35,14.63,12.17,28.41,9.62-12.54,5.02-23.7,8.51-29.71.05,4.44,11.92,15.92,10.42,29.32,6.31C17.63,52.52,6.94,57.26,0,49.55c5.73,11.27,16.87,8.57,29.62,3.02-10.99,7.65-20.99,13.44-28.7,6.61,19.32,29.23,62.29-54.31,84.08-13.05.07.07.14.13.21.2h0s0-.01,0-.01h0s0,0,0,0h0s0,0,0,0h0C76.32,0,14.11,45.57,3.9,20.65"/></clipPath><linearGradient id="linear-gradient-3" x1=".11" y1="43.17" x2="85.23" y2="45.23" gradientUnits="userSpaceOnUse"><stop offset="0" stop-color="#752677"/><stop offset="1" stop-color="#3b80c1"/></linearGradient><linearGradient id="linear-gradient-4" x1="-456.39" y1="533.12" x2="-457.32" y2="571.25" gradientTransform="translate(499.86 -525.77)" xlink:href="#linear-gradient-2"/><mask id="mask-3" x="0" y="20.65" width="85.2" height="44.88" maskUnits="userSpaceOnUse"><rect class="cls-5" y="20.65" width="85.2" height="44.88"/></mask><linearGradient id="linear-gradient-5" x1="-456.39" y1="533.12" x2="-457.32" y2="571.25" gradientTransform="translate(499.86 -525.77)" xlink:href="#linear-gradient-2"/><mask id="mask-4" x="0" y="20.65" width="85.2" height="44.88" maskUnits="userSpaceOnUse"><rect class="cls-9" y="20.65" width="85.2" height="44.88"/></mask><linearGradient id="linear-gradient-6" x1="-456.39" y1="533.12" x2="-457.32" y2="571.25" gradientTransform="translate(499.86 -525.77)" xlink:href="#linear-gradient-2"/><mask id="mask-5" x="0" y="20.65" width="85.2" height="44.88" maskUnits="userSpaceOnUse"><rect class="cls-16" y="20.65" width="85.2" height="44.88"/></mask></defs><g id="Layer_1-2"><g class="cls-19"><rect class="cls-18" x="1.46" y="19.07" width="85.2" height="88.4"/></g><g class="cls-4"><path class="cls-11" d="M82.77,86.82c-1.61-12.62-13.14-13.76-27.12-12.81,13.03-3.55,24.52-5.75,29.52,3.35-3.04-12.35-14.63-12.17-28.41-9.62,12.54-5.02,23.7-8.51,29.71-.05-4.43-11.92-15.92-10.42-29.32-6.31,11.88-6.42,22.57-11.16,29.51-3.45-5.73-11.27-16.87-8.57-29.62-3.02,10.99-7.65,20.99-13.44,28.7-6.61C66.43,19.07,23.47,102.61,1.68,61.34c-.07-.07-.14-.13-.22-.2h0s0,.01,0,.01h0s0,0,0,0h0s0,0,0,0h0c8.88,46.33,71.1.76,81.31,25.68"/></g><g class="cls-3"><path class="cls-11" d="M82.77,86.82c-1.61-12.62-13.14-13.76-27.12-12.81,13.03-3.55,24.52-5.75,29.52,3.35-3.04-12.35-14.63-12.17-28.41-9.62,12.54-5.02,23.7-8.51,29.71-.05-4.43-11.92-15.92-10.42-29.32-6.31,11.88-6.42,22.57-11.16,29.51-3.45-5.73-11.27-16.87-8.57-29.62-3.02,10.99-7.65,20.99-13.44,28.7-6.61C66.43,19.07,23.47,102.61,1.68,61.34c-.07-.07-.14-.13-.22-.2h0s0,.01,0,.01h0s0,0,0,0h0s0,0,0,0h0c8.88,46.33,71.1.76,81.31,25.68"/></g><g class="cls-6"><path class="cls-14" d="M82.77,86.82c-1.61-12.62-13.14-13.76-27.12-12.81,13.03-3.55,24.52-5.75,29.52,3.35-3.04-12.35-14.63-12.17-28.41-9.62,12.54-5.02,23.7-8.51,29.71-.05-4.43-11.92-15.92-10.42-29.32-6.31,11.88-6.42,22.57-11.16,29.51-3.45-5.73-11.27-16.87-8.57-29.62-3.02,10.99-7.65,20.99-13.44,28.7-6.61C66.43,19.07,23.47,102.61,1.68,61.34c-.07-.07-.14-.13-.22-.2h0s0,.01,0,.01h0s0,0,0,0h0s0,0,0,0h0c8.88,46.33,71.1.76,81.31,25.68"/></g><g class="cls-8"><rect class="cls-7" x="0" width="85.2" height="88.4"/></g><g class="cls-20"><path class="cls-12" d="M3.9,20.65c1.61,12.62,13.14,13.76,27.12,12.81-13.03,3.55-24.52,5.75-29.52-3.35,3.04,12.35,14.63,12.17,28.41,9.62-12.54,5.02-23.7,8.51-29.71.05,4.44,11.92,15.92,10.42,29.32,6.31-11.88,6.42-22.57,11.16-29.51,3.45,5.73,11.27,16.87,8.57,29.62,3.02-10.99,7.65-20.99,13.44-28.7,6.61,19.32,29.23,62.29-54.31,84.08-13.05.07.07.14.13.21.2h0s0-.01,0-.01h0s0,0,0,0h0s0,0,0,0h0C76.32,0,14.11,45.57,3.9,20.65"/></g><g class="cls-17"><path class="cls-12" d="M3.9,20.65c1.61,12.62,13.14,13.76,27.12,12.81-13.03,3.55-24.52,5.75-29.52-3.35,3.04,12.35,14.63,12.17,28.41,9.62-12.54,5.02-23.7,8.51-29.71.05,4.44,11.92,15.92,10.42,29.32,6.31-11.88,6.42-22.57,11.16-29.51,3.45,5.73,11.27,16.87,8.57,29.62,3.02-10.99,7.65-20.99,13.44-28.7,6.61,19.32,29.23,62.29-54.31,84.08-13.05.07.07.14.13.21.2h0s0-.01,0-.01h0s0,0,0,0h0s0,0,0,0h0C76.32,0,14.11,45.57,3.9,20.65"/></g><g class="cls-1"><path class="cls-13" d="M3.9,20.65c1.61,12.62,13.14,13.76,27.12,12.81-13.03,3.55-24.52,5.75-29.52-3.35,3.04,12.35,14.63,12.17,28.41,9.62-12.54,5.02-23.7,8.51-29.71.05,4.44,11.92,15.92,10.42,29.32,6.31-11.88,6.42-22.57,11.16-29.51,3.45,5.73,11.27,16.87,8.57,29.62,3.02-10.99,7.65-20.99,13.44-28.7,6.61,19.32,29.23,62.29-54.31,84.08-13.05.07.07.14.13.21.2h0s0-.01,0-.01h0s0,0,0,0h0s0,0,0,0h0C76.32,0,14.11,45.57,3.9,20.65"/></g><path class="cls-10" d="M307.49,37.21l-.5,4.68c-.49-.35-.99-.6-1.5-.74-.51-.14-1.18-.21-2.01-.21h-7.95c-.54,0-.92.05-1.15.13-.23.09-.42.26-.57.52-.08.16-.18.47-.32.95-.13.48-.2.8-.2.96,0,.56.45.83,1.36.83h6.89c1.21,0,2.06.23,2.57.7.71.64,1.06,1.42,1.06,2.34,0,.41-.1,1-.3,1.78l-1.49,5.75c-.3,1.16-.59,2.01-.89,2.54-.29.53-.72,1-1.29,1.39-.63.44-1.26.72-1.87.84-.62.12-1.81.18-3.57.19h-14.95l.63-4.58c.63.37,1.17.61,1.62.7.45.1,1.26.14,2.45.14h7.4c.61,0,1.01-.04,1.21-.12.2-.07.37-.26.5-.56.31-.64.46-1.23.46-1.77s-.44-.82-1.31-.82l-.91.02h-5.48c-2.83,0-4.25-1.04-4.25-3.12,0-.56.15-1.44.46-2.64l1.36-5.23c.24-.97.54-1.72.89-2.25.35-.53.86-1.01,1.53-1.45.54-.35,1.14-.6,1.79-.75.66-.15,1.44-.23,2.36-.23h15.95ZM260.43,49.6l7.15-12.39h12.08c-.44.66-.77,1.24-.98,1.73-.21.49-.44,1.2-.68,2.14l-4.08,15.8c-.14.54-.22,1.14-.22,1.79,0,.36.07.75.22,1.2h-10.16c.43-.64.76-1.21.97-1.71.22-.5.44-1.22.69-2.16l3.62-14-10.3,17.87h-6.17l-1.16-17.81-3.82,14.82c-.15.57-.23,1.17-.23,1.79,0,.37.08.77.23,1.2h-5.18c.43-.64.75-1.21.97-1.71.22-.5.45-1.22.69-2.16l4.08-15.8c.14-.54.21-1.14.21-1.79,0-.37-.07-.76-.22-1.2h11.47l.81,12.39ZM224.2,43.11l-2.82,10.95c-.15.62-.23.98-.23,1.08,0,.39.2.66.6.83.25.1.7.15,1.34.15h3.27c.74,0,1.21-.1,1.4-.28.19-.19.41-.75.65-1.69l2.85-10.98c.07-.27.12-.46.15-.6.07-.28.11-.5.11-.66,0-.64-.55-.96-1.67-.96h-3.17c-.82,0-1.38.13-1.68.39-.3.26-.57.86-.82,1.78ZM223.14,37.21h11.03c1.13,0,2.01.07,2.63.23.62.15,1.17.41,1.63.79,1.13.91,1.69,2.1,1.69,3.57,0,.54-.1,1.2-.3,1.99l-2.9,11.17c-.24.95-.52,1.69-.81,2.2-.29.52-.7.99-1.22,1.41-.57.47-1.25.8-2.03,1-.78.2-1.78.3-3.01.3h-11.58c-1.3,0-2.22-.06-2.78-.18-.55-.12-1.06-.39-1.52-.78-1.03-.89-1.55-2.03-1.55-3.42,0-.49.14-1.21.42-2.18l2.87-11.13c.29-1.08.64-1.93,1.03-2.55.4-.61.92-1.1,1.57-1.45,1.17-.64,2.78-.96,4.81-.96ZM211.05,37.21l-.48,4.41c-.63-.29-1.13-.47-1.48-.56-.36-.09-.88-.12-1.57-.12h-6.01c-1,0-1.66.1-1.97.29-.31.19-.57.67-.77,1.42l-2.93,11.4c-.13.5-.2.84-.2,1.03,0,.49.25.8.76.95.26.07.74.1,1.44.1h5.78c1.46-.01,2.62-.27,3.48-.78l-1.84,4.51h-11.67c-1.73-.03-2.79-.07-3.18-.11-.4-.04-.82-.15-1.26-.34-.72-.31-1.29-.79-1.71-1.43-.42-.64-.63-1.35-.63-2.14,0-.42.12-1.1.36-2.06l3.09-11.93c.48-1.81,1.39-3.09,2.76-3.82.67-.36,1.3-.59,1.87-.68.57-.08,1.68-.14,3.33-.15h12.83ZM173.69,44.09l6.04-5.11c.62-.53,1.07-1.12,1.35-1.77h6.67l-.58.4c-.95.66-1.77,1.29-2.46,1.89l-9.54,8.06,4.21,8.46c.59,1.21,1.03,2.02,1.29,2.42.27.41.65.88,1.14,1.41h-11.07c.05-.25.07-.45.07-.59,0-.94-.38-2.21-1.14-3.8l-1.11-2.33-5.21,4.5c-.53.45-.91.82-1.12,1.1-.21.28-.41.65-.61,1.13h-7.53c1.55-.78,3.29-1.95,5.23-3.53l7.7-6.55-3.07-6.59c-1.15-2.55-2.29-4.54-3.42-5.98h11.11c-.1.35-.15.65-.15.9,0,.48.06.93.19,1.37.12.44.39,1.08.79,1.93l1.21,2.69ZM144.09,40.94l-1.43,5.53h8.47c.87-.02,1.62-.13,2.24-.33l-1.18,4.57c-.58-.33-1.47-.5-2.67-.5h-7.82l-1.52,5.92h8.89c.88-.01,1.69-.18,2.42-.5l-1.68,4.23h-19.99c.44-.65.77-1.22.98-1.72.21-.49.44-1.21.68-2.15l4.08-15.8c.14-.54.22-1.14.22-1.79,0-.37-.07-.76-.22-1.2h20.11l-.53,4.3c-.45-.23-.84-.39-1.19-.46-.35-.07-.86-.11-1.52-.11h-8.35ZM108.45,37.21h21.05l-.41,4.15c-.53-.27-1.2-.4-1.99-.41h-4.63l-4.11,15.93c-.15.57-.23,1.17-.23,1.79,0,.36.08.75.23,1.2h-10.16c.43-.64.75-1.21.97-1.71.22-.5.45-1.22.69-2.16l3.88-15.05h-4.88c-.79,0-1.5.12-2.14.38l1.73-4.11Z"/><path class="cls-10" d="M293.4,67.98l-.94,3.64h5.58c.57-.01,1.07-.09,1.47-.22l-.78,3.01c-.38-.22-.97-.33-1.76-.33h-5.15l-1,3.9h5.86c.58,0,1.12-.12,1.6-.33l-1.1,2.79h-13.17c.29-.43.51-.81.65-1.13.14-.32.29-.8.45-1.42l2.69-10.4c.09-.35.14-.75.14-1.18,0-.24-.05-.5-.15-.79h13.24l-.35,2.83c-.29-.15-.55-.25-.78-.3-.23-.05-.56-.07-1-.07h-5.5ZM267.98,77.98h2.83c.65,0,1.06-.09,1.23-.26.18-.17.37-.67.59-1.49l1.81-6.97c.06-.26.1-.46.1-.6,0-.24-.09-.43-.28-.57-.11-.07-.38-.11-.8-.11h-2.9l-2.58,10ZM261.16,80.43c.29-.43.51-.81.65-1.13.14-.32.29-.8.45-1.42l2.69-10.4c.09-.35.14-.75.14-1.18,0-.24-.05-.5-.15-.79h11.09c.9,0,1.53.03,1.89.09.36.06.69.19,1,.4.4.26.71.61.94,1.03.23.43.35.87.35,1.34s-.05.93-.15,1.31l-1.8,6.97c-.21.85-.4,1.46-.59,1.84-.19.38-.48.74-.88,1.08-.41.36-.82.6-1.23.71-.41.1-1.11.16-2.1.16h-12.3ZM258.46,65.52c-.29.44-.5.82-.64,1.14-.14.32-.29.79-.45,1.41l-2.69,10.4c-.09.36-.14.76-.14,1.18,0,.24.05.5.14.79h-6.69c.28-.42.5-.8.64-1.13.14-.33.29-.8.46-1.42l2.69-10.4c.09-.35.14-.75.14-1.18,0-.24-.05-.5-.15-.79h6.69ZM232.88,65.52h5.56l-.18,9.64,4.29-7.79c.26-.47.38-.92.38-1.37,0-.05,0-.21-.01-.48h3.67c-.61.69-1.11,1.4-1.5,2.12l-6.94,12.8h-5.61l.21-9.66-5.32,9.66h-5.59l.25-12.2c0-.34.01-.53.01-.59,0-.81-.14-1.52-.43-2.12h6.59c-.38.6-.57,1.35-.59,2.27l-.19,7.51,5.37-9.78ZM204,77.98h2.83c.65,0,1.06-.09,1.23-.26.18-.17.37-.67.59-1.49l1.81-6.97c.06-.26.1-.46.1-.6,0-.24-.09-.43-.28-.57-.11-.07-.38-.11-.8-.11h-2.9l-2.58,10ZM197.18,80.43c.29-.43.51-.81.65-1.13.14-.32.29-.8.45-1.42l2.69-10.4c.09-.35.14-.75.14-1.18,0-.24-.05-.5-.15-.79h11.09c.9,0,1.53.03,1.89.09.36.06.69.19,1,.4.4.26.71.61.94,1.03.23.43.35.87.35,1.34s-.05.93-.15,1.31l-1.8,6.97c-.2.85-.4,1.46-.59,1.84-.19.38-.48.74-.88,1.08-.41.36-.82.6-1.23.71-.41.1-1.12.16-2.1.16h-12.31ZM192.18,77.63l-1.11,2.81h-13.67c.29-.43.51-.81.65-1.13.14-.32.29-.8.45-1.42l2.69-10.4c.09-.35.14-.75.14-1.18,0-.24-.05-.5-.15-.79h6.69c-.29.44-.5.82-.64,1.14-.14.32-.29.79-.45,1.41l-2.55,9.91h3.73c1.33,0,2.25-.02,2.75-.06.5-.04,1-.14,1.49-.29ZM163.33,71.47h2.78c.47,0,.8-.06.98-.18.18-.12.32-.38.42-.76l.38-1.49c.05-.2.07-.37.07-.5,0-.38-.29-.57-.87-.57h-2.86l-.9,3.5ZM164.12,74.02h-1.47l-1.15,4.45c-.09.36-.14.76-.14,1.18,0,.24.05.5.14.79h-6.69c.29-.42.51-.8.64-1.13.14-.33.29-.8.45-1.42l2.69-10.4c.09-.35.14-.75.14-1.18,0-.24-.05-.5-.15-.79h11.15c.84,0,1.41.03,1.73.08.31.06.62.18.93.39.38.25.7.59.94,1.01.24.41.37.82.37,1.22,0,.31-.04.64-.13.97l-.66,2.53c-.19.66-.32,1.06-.39,1.22-.07.16-.19.31-.37.47-.47.41-1.13.62-2,.62-.09,0-.22,0-.38-.01l.94,4.71c.08.4.18.71.3.94.12.22.33.48.63.77h-6.3l-1.23-6.41ZM140.57,69.41l-1.86,7.21c-.1.41-.15.65-.15.71,0,.25.13.44.4.55.17.06.46.1.88.1h2.15c.49,0,.8-.06.93-.19.13-.12.27-.5.43-1.12l1.88-7.23c.05-.18.08-.31.1-.4.05-.18.07-.33.07-.44,0-.42-.37-.63-1.1-.63h-2.09c-.54,0-.91.09-1.1.26-.2.17-.38.56-.54,1.17ZM139.87,65.52h7.27c.74,0,1.32.05,1.73.15.41.1.77.27,1.07.52.74.6,1.12,1.38,1.12,2.35,0,.35-.07.79-.2,1.31l-1.91,7.36c-.16.63-.34,1.11-.53,1.45-.19.34-.46.65-.8.93-.38.31-.82.53-1.34.66-.51.13-1.17.2-1.98.2h-7.63c-.85,0-1.46-.04-1.83-.12-.37-.08-.7-.25-1-.51-.68-.59-1.02-1.34-1.02-2.25,0-.32.09-.8.28-1.43l1.89-7.33c.19-.71.42-1.27.68-1.68.26-.4.61-.72,1.04-.95.77-.42,1.83-.63,3.17-.63ZM117.51,65.52h5.56l-.18,9.64,4.29-7.79c.26-.47.38-.92.38-1.37,0-.05,0-.21-.01-.48h3.67c-.61.69-1.11,1.4-1.5,2.12l-6.94,12.8h-5.61l.21-9.66-5.32,9.66h-5.59l.25-12.2c0-.34.01-.53.01-.59,0-.81-.14-1.52-.43-2.12h6.59c-.38.6-.57,1.35-.59,2.27l-.19,7.51,5.37-9.78Z"/><path class="cls-10" d="M290.31,92.47l1.15-.07c0,.33.05.61.15.85.1.23.29.42.56.57.27.15.59.22.96.22.51,0,.89-.1,1.14-.3.25-.2.38-.44.38-.72,0-.2-.08-.39-.23-.56-.16-.18-.54-.4-1.15-.66-.61-.26-1-.44-1.17-.55-.28-.17-.5-.38-.64-.61-.14-.23-.21-.51-.21-.81,0-.53.21-.99.64-1.37.42-.38,1.02-.57,1.78-.57.85,0,1.49.2,1.93.59.44.39.67.91.69,1.55l-1.13.08c-.02-.41-.16-.73-.43-.97-.27-.24-.65-.36-1.15-.36-.4,0-.71.09-.93.27-.22.18-.33.38-.33.59s.1.4.29.56c.13.11.45.28.98.51.88.38,1.44.68,1.66.9.36.35.55.78.55,1.28,0,.33-.1.66-.31.98-.21.32-.52.58-.94.77-.42.19-.92.29-1.49.29-.78,0-1.44-.19-1.99-.58-.55-.39-.8-1.01-.77-1.88M289.27,93.84l-.19.94c-.28.07-.54.11-.8.11-.46,0-.82-.11-1.09-.34-.2-.17-.31-.4-.31-.69,0-.15.05-.49.16-1.02l.82-3.92h-.91l.18-.89h.91l.35-1.66,1.32-.79-.52,2.45h1.13l-.19.89h-1.13l-.78,3.73c-.1.47-.15.76-.15.85,0,.14.04.24.12.31.08.07.21.11.38.11.25,0,.48-.02.68-.08ZM279.34,94.77l1.41-6.75h1.04l-.25,1.18c.45-.46.88-.8,1.27-1.01.39-.21.8-.32,1.21-.32.55,0,.98.15,1.29.44.31.3.47.69.47,1.19,0,.25-.05.64-.16,1.18l-.86,4.09h-1.15l.9-4.28c.09-.41.13-.72.13-.92,0-.23-.08-.41-.23-.55-.16-.14-.38-.21-.67-.21-.59,0-1.11.21-1.57.64-.46.42-.8,1.15-1.01,2.18l-.65,3.14h-1.15ZM276.71,93.55c-.81.92-1.64,1.37-2.48,1.37-.52,0-.94-.15-1.26-.45-.32-.3-.48-.66-.48-1.1,0-.28.07-.77.22-1.46l.81-3.9h1.15l-.9,4.31c-.08.36-.12.64-.12.84,0,.25.08.45.23.59.15.14.38.21.68.21.32,0,.64-.08.94-.24.31-.16.57-.37.79-.64.22-.27.4-.58.54-.95.09-.23.2-.64.32-1.23l.61-2.91h1.15l-1.41,6.75h-1.06l.25-1.22ZM266.22,92.1c0,.64.15,1.12.46,1.44.31.33.69.49,1.16.49.25,0,.49-.05.73-.15.24-.1.47-.25.67-.45.21-.2.38-.44.53-.7.15-.26.26-.54.35-.84.13-.42.2-.82.2-1.21,0-.61-.15-1.08-.46-1.42-.31-.34-.69-.5-1.16-.5-.36,0-.69.08-.99.26-.3.17-.57.42-.8.75-.24.33-.41.72-.53,1.15-.11.44-.17.83-.17,1.17ZM265.08,92.21c0-1.32.39-2.41,1.16-3.27.64-.71,1.48-1.07,2.52-1.07.81,0,1.47.26,1.97.76.5.51.75,1.19.75,2.06,0,.78-.16,1.5-.47,2.16-.31.67-.76,1.18-1.34,1.53-.58.36-1.19.53-1.83.53-.52,0-1-.11-1.43-.34-.43-.22-.76-.54-.98-.95-.23-.41-.34-.89-.34-1.43ZM263.02,92.31l1.15.12c-.29.84-.7,1.47-1.23,1.88-.53.41-1.14.61-1.81.61-.73,0-1.33-.24-1.78-.71-.46-.47-.68-1.14-.68-1.99,0-.74.15-1.46.44-2.17.29-.71.71-1.25,1.26-1.62.54-.37,1.16-.56,1.87-.56s1.3.21,1.72.61c.43.41.64.95.64,1.62l-1.13.08c0-.43-.13-.76-.37-1-.24-.24-.57-.36-.96-.36-.46,0-.86.15-1.2.44-.34.29-.61.74-.8,1.33-.19.59-.29,1.17-.29,1.72s.13,1.01.38,1.3c.25.29.57.43.94.43s.73-.14,1.07-.43c.34-.28.61-.72.8-1.3ZM253.82,93.84l-.19.94c-.28.07-.54.11-.8.11-.46,0-.82-.11-1.09-.34-.2-.17-.31-.4-.31-.69,0-.15.05-.49.16-1.02l.82-3.92h-.91l.18-.89h.91l.35-1.66,1.32-.79-.52,2.45h1.13l-.19.89h-1.13l-.78,3.73c-.1.47-.15.76-.15.85,0,.14.04.24.12.31.08.07.21.11.38.11.25,0,.48-.02.68-.08ZM248.2,94.77l1.41-6.75h1.15l-1.41,6.75h-1.15ZM249.88,86.76l.27-1.3h1.14l-.27,1.3h-1.14ZM239.01,90.81h3.79c0-.12,0-.2,0-.25,0-.58-.14-1.02-.43-1.33-.29-.31-.66-.46-1.11-.46-.49,0-.94.17-1.34.51-.41.34-.71.85-.91,1.53ZM242.35,92.48l1.12.12c-.16.56-.53,1.08-1.11,1.58-.58.5-1.27.75-2.07.75-.5,0-.96-.11-1.37-.34-.42-.23-.74-.57-.95-1.01-.22-.44-.33-.94-.33-1.5,0-.74.17-1.45.51-2.14.34-.69.78-1.21,1.33-1.54.54-.34,1.13-.51,1.76-.51.8,0,1.45.25,1.93.75.48.5.72,1.18.72,2.05,0,.33-.03.67-.09,1.02h-4.97c-.02.13-.02.25-.02.36,0,.63.15,1.11.43,1.45.29.33.65.5,1.07.5.39,0,.78-.13,1.16-.39.38-.26.68-.63.89-1.12ZM233.06,94.77l1.41-6.75h1.02l-.28,1.38c.35-.52.69-.91,1.02-1.16.33-.25.67-.37,1.02-.37.23,0,.51.08.85.25l-.47,1.07c-.2-.15-.42-.22-.66-.22-.4,0-.81.23-1.24.67-.43.45-.76,1.26-1,2.42l-.57,2.71h-1.09ZM230.43,93.55c-.81.92-1.64,1.37-2.48,1.37-.52,0-.94-.15-1.26-.45-.32-.3-.48-.66-.48-1.1,0-.28.07-.77.22-1.46l.81-3.9h1.15l-.9,4.31c-.08.36-.12.64-.12.84,0,.25.08.45.23.59.15.14.38.21.68.21.32,0,.64-.08.94-.24.31-.16.57-.37.79-.64.22-.27.4-.58.54-.95.09-.23.2-.64.32-1.23l.61-2.91h1.15l-1.41,6.75h-1.06l.25-1.22ZM219.42,92.47l1.15-.07c0,.33.05.61.15.85.1.23.29.42.56.57.27.15.59.22.96.22.51,0,.89-.1,1.14-.3.25-.2.38-.44.38-.72,0-.2-.08-.39-.23-.56-.16-.18-.54-.4-1.15-.66-.61-.26-1-.44-1.17-.55-.28-.17-.5-.38-.64-.61-.14-.23-.22-.51-.22-.81,0-.53.21-.99.64-1.37.42-.38,1.02-.57,1.78-.57.85,0,1.49.2,1.93.59.44.39.67.91.69,1.55l-1.13.08c-.02-.41-.16-.73-.43-.97-.27-.24-.65-.36-1.15-.36-.4,0-.71.09-.93.27-.22.18-.33.38-.33.59s.1.4.29.56c.13.11.45.28.98.51.88.38,1.44.68,1.66.9.36.35.55.78.55,1.28,0,.33-.1.66-.31.98-.21.32-.52.58-.94.77-.42.19-.92.29-1.49.29-.78,0-1.44-.19-1.99-.58-.55-.39-.8-1.01-.77-1.88ZM209.84,91.79c0,.46.05.81.13,1.04.13.33.31.57.54.75.23.17.5.26.79.26.38,0,.75-.13,1.12-.4.37-.26.67-.67.91-1.23.23-.55.35-1.08.35-1.59,0-.56-.15-1-.46-1.32-.31-.33-.69-.49-1.14-.49-.28,0-.55.08-.81.23-.26.15-.51.38-.73.69-.23.31-.4.68-.51,1.1-.12.43-.18.75-.18.97ZM208.4,95.38l1.16.11c0,.26.02.46.1.59.07.13.19.23.34.3.21.09.48.14.81.14.7,0,1.19-.18,1.5-.54.2-.24.38-.77.55-1.58l.11-.55c-.6.61-1.23.91-1.91.91s-1.25-.25-1.71-.75c-.46-.5-.69-1.21-.69-2.13,0-.76.18-1.46.54-2.09.36-.64.79-1.11,1.29-1.44.5-.32,1.01-.49,1.54-.49.88,0,1.57.42,2.04,1.26l.23-1.1h1.06l-1.36,6.51c-.15.72-.34,1.27-.59,1.67-.24.4-.58.71-1.01.93-.43.22-.93.33-1.49.33s-1.01-.07-1.4-.21c-.39-.14-.69-.34-.88-.61-.19-.27-.29-.58-.29-.93,0-.1.01-.22.03-.34ZM201.23,94.77l1.41-6.75h1.04l-.25,1.18c.45-.46.88-.8,1.27-1.01.39-.21.8-.32,1.21-.32.55,0,.98.15,1.29.44.31.3.47.69.47,1.19,0,.25-.05.64-.16,1.18l-.86,4.09h-1.15l.9-4.28c.09-.41.13-.72.13-.92,0-.23-.08-.41-.23-.55-.16-.14-.38-.21-.67-.21-.59,0-1.11.21-1.57.64-.46.42-.8,1.15-1.01,2.18l-.65,3.14h-1.15ZM198.29,94.77l1.41-6.75h1.15l-1.41,6.75h-1.15ZM199.97,86.76l.27-1.3h1.14l-.27,1.3h-1.14ZM191.84,94.77l1.95-9.31h1.14l-1.21,5.77,3.36-3.21h1.52l-2.88,2.52,1.74,4.23h-1.26l-1.35-3.46-1.4,1.21-.47,2.26h-1.15ZM189.57,91.36c-.16.06-.33.11-.52.15-.18.04-.49.07-.92.11-.67.06-1.14.13-1.42.23-.28.09-.48.24-.62.44-.14.2-.21.42-.21.66,0,.32.11.59.33.8.22.21.54.31.95.31.38,0,.75-.1,1.1-.3.35-.2.63-.48.83-.84.2-.36.36-.87.48-1.54ZM189.14,93.93c-.4.34-.78.59-1.15.75-.37.16-.76.24-1.18.24-.62,0-1.13-.18-1.51-.55-.38-.37-.57-.84-.57-1.41,0-.38.08-.71.26-1,.17-.29.4-.53.68-.7.28-.18.63-.3,1.04-.38.26-.05.75-.09,1.47-.12.72-.03,1.24-.11,1.55-.23.09-.31.13-.57.13-.78,0-.27-.1-.47-.29-.63-.27-.21-.66-.32-1.17-.32-.48,0-.88.11-1.18.32-.31.21-.53.52-.67.91l-1.16-.1c.24-.67.61-1.18,1.13-1.54.52-.36,1.16-.53,1.95-.53.84,0,1.5.2,1.98.6.37.29.56.68.56,1.16,0,.36-.05.78-.16,1.25l-.37,1.68c-.12.53-.18.97-.18,1.3,0,.21.05.52.14.92h-1.16c-.06-.22-.11-.5-.13-.84ZM173.75,94.77l1.41-6.75h1.15l-.23,1.11c.43-.48.81-.81,1.14-.99.34-.18.7-.27,1.1-.27.42,0,.77.11,1.05.33.28.22.47.53.56.93.34-.42.71-.74,1.08-.95.38-.21.78-.31,1.2-.31.56,0,.98.13,1.27.4.28.27.42.64.42,1.12,0,.21-.05.55-.15,1.03l-.91,4.35h-1.15l.93-4.46c.08-.36.12-.62.12-.78,0-.22-.07-.4-.21-.52-.14-.13-.34-.19-.59-.19-.34,0-.69.1-1.05.31-.36.21-.63.48-.83.82-.2.34-.37.85-.52,1.55l-.69,3.27h-1.15l.95-4.56c.07-.31.1-.53.1-.66,0-.22-.07-.4-.21-.53-.14-.14-.32-.2-.54-.2-.33,0-.67.1-1.03.31-.36.21-.65.5-.87.87-.22.37-.41.9-.55,1.59l-.67,3.19h-1.15Z"/><path d="M318.26,28.15c.74,0,1.47.19,2.17.57s1.26.93,1.65,1.63.59,1.45.59,2.22-.19,1.49-.58,2.2-.93,1.25-1.63,1.64-1.43.58-2.2.58-1.5-.19-2.2-.58-1.25-.93-1.64-1.64-.59-1.44-.59-2.2.2-1.51.59-2.22.95-1.25,1.66-1.63,1.43-.57,2.17-.57ZM318.26,28.88c-.62,0-1.23.16-1.81.48s-1.05.77-1.38,1.37-.5,1.21-.5,1.85.16,1.25.49,1.83.78,1.04,1.37,1.37,1.2.49,1.83.49,1.25-.16,1.83-.49,1.04-.78,1.37-1.37.49-1.19.49-1.83-.17-1.26-.5-1.85-.79-1.05-1.38-1.37-1.19-.48-1.81-.48ZM316.32,35.01v-4.76h1.63c.56,0,.96.04,1.21.13s.45.24.6.46.22.45.22.7c0,.35-.12.65-.37.91s-.58.4-.99.43c.17.07.3.15.4.25.19.19.43.5.7.94l.58.93h-.94l-.42-.75c-.33-.59-.6-.96-.8-1.11-.14-.11-.35-.16-.62-.16h-.45v2.02h-.77ZM317.09,32.33h.93c.45,0,.75-.07.91-.2s.24-.31.24-.53c0-.14-.04-.27-.12-.38s-.19-.19-.33-.25-.4-.08-.77-.08h-.87v1.44Z"/></g></svg>