<svg width="11" height="11" viewBox="0 0 11 11" fill="none" xmlns="http://www.w3.org/2000/svg">
<path fill-rule="evenodd" clip-rule="evenodd" d="M5.50003 1.07564e-08C4.04124 9.11732e-05 2.64224 0.579641 1.61078 1.61116C0.579324 2.64267 -9.11579e-05 4.04165 1.07571e-08 5.50034C9.11794e-05 6.95904 0.579681 8.35795 1.61127 9.38933C2.64285 10.4207 4.04193 11.0001 5.50072 11C6.95951 10.9999 8.35851 10.4204 9.38997 9.38885C10.4214 8.35733 11.0008 6.95835 11.0007 5.49966C11.0007 4.04097 10.4211 2.64206 9.38948 1.61067C8.3579 0.579284 6.95882 -9.11517e-05 5.50003 1.07564e-08ZM5.46703 10.3119C4.19067 10.3119 2.96658 9.80486 2.06406 8.9024C1.16154 7.99993 0.654504 6.77593 0.654504 5.49966C0.654504 4.22338 1.16154 2.99938 2.06406 2.09692C2.96658 1.19446 4.19067 0.687457 5.46703 0.687457C6.74339 0.687457 7.96748 1.19446 8.87 2.09692C9.77252 2.99938 10.2796 4.22338 10.2796 5.49966C10.2796 6.77593 9.77252 7.99993 8.87 8.9024C7.96748 9.80486 6.74339 10.3119 5.46703 10.3119Z" fill="#008080"/>
<path fill-rule="evenodd" clip-rule="evenodd" d="M2.00128 1.84513C1.81565 2.76908 2.50659 4.1818 3.97579 4.52553C5.44499 4.86926 4.81317 4.58328 4.58492 4.12474C4.35529 3.66621 4.56086 3.32248 4.9163 3.20836C5.27242 3.09356 5.18236 3.40979 5.71036 2.74983C5.84374 1.37491 4.69836 2.73127 4.58423 2.15861C5.71861 0.840759 4.0576 0.343727 3.57566 0.515592C3.09372 0.687456 2.18691 0.920504 2.00128 1.84513ZM4.69217 5.28929C4.60692 5.3271 4.20954 5.57528 4.07273 5.74714C3.93592 5.919 3.8761 6.28198 4.07273 6.4346C4.26935 6.5879 4.06173 7.31385 4.59179 7.44722C5.12186 7.58059 5.65261 7.65827 5.67255 8.07762C5.69111 8.49697 5.62305 9.4711 5.36799 9.56734C5.71174 9.75776 6.54843 8.74583 6.84268 8.21099C7.13762 7.67683 7.23593 6.91238 7.216 6.72127C7.19606 6.53015 7.33356 6.13005 7.39268 5.61446C7.45181 5.09887 7.00081 5.0645 6.94237 4.83557C6.88256 4.60596 6.80281 4.35366 4.69217 5.28929ZM8.99044 2.74983C8.99044 2.74983 7.60719 3.34173 8.54769 4.22099C9.48682 5.09887 9.96532 5.93275 9.91926 6.12387C9.87664 6.3136 8.97051 7.29667 9.49095 7.21967C10.0141 7.14337 10.3998 6.11218 10.483 5.50034C10.5648 4.88851 9.84776 3.68614 9.8182 3.59127C9.79345 3.49434 9.32182 2.76014 8.99044 2.74983Z" fill="#008080"/>
</svg>
